0
SECTION
2
HEADER
9
$INSUNITS
70
4
9
$ACADVER
1
AC1014
9
$HANDSEED
5
FFFF
0
ENDSEC
0
SECTION
2
TABLES
0
TABLE
2
VPORT
5
8
100
AcDbSymbolTable
0
ENDTAB
0
TABLE
2
LTYPE
5
5
100
AcDbSymbolTable
0
LTYPE
5
14
100
AcDbSymbolTableRecord
100
AcDbLinetypeTableRecord
2
BYBLOCK
70
0
0
LTYPE
5
15
100
AcDbSymbolTableRecord
100
AcDbLinetypeTableRecord
2
BYLAYER
70
0
0
ENDTAB
0
TABLE
2
LAYER
5
2
100
AcDbSymbolTable
70
2
0
LAYER
5
50
100
AcDbSymbolTableRecord
100
AcDbLayerTableRecord
2
0
70
0
6
CONTINUOUS
0
ENDTAB
0
TABLE
2
STYLE
5
3
100
AcDbSymbolTable
70
1
0
STYLE
5
11
100
AcDbSymbolTableRecord
100
AcDbTextStyleTableRecord
2
STANDARD
70
0
0
ENDTAB
0
TABLE
2
VIEW
5
6
100
AcDbSymbolTable
70
0
0
ENDTAB
0
TABLE
2
UCS
5
7
100
AcDbSymbolTable
70
0
0
ENDTAB
0
TABLE
2
APPID
5
9
100
AcDbSymbolTable
70
2
0
APPID
5
12
100
AcDbSymbolTableRecord
100
AcDbRegAppTableRecord
2
ACAD
70
0
0
ENDTAB
0
TABLE
2
DIMSTYLE
5
A
100
AcDbSymbolTable
70
1
0
ENDTAB
0
TABLE
2
BLOCK_RECORD
5
1
100
AcDbSymbolTable
70
1
0
BLOCK_RECORD
5
1F
100
AcDbSymbolTableRecord
100
AcDbBlockTableRecord
2
*MODEL_SPACE
0
BLOCK_RECORD
5
1B
100
AcDbSymbolTableRecord
100
AcDbBlockTableRecord
2
*PAPER_SPACE
0
ENDTAB
0
ENDSEC
0
SECTION
2
BLOCKS
0
BLOCK
5
20
100
AcDbEntity
100
AcDbBlockBegin
2
*MODEL_SPACE
0
ENDBLK
5
21
100
AcDbEntity
100
AcDbBlockEnd
0
BLOCK
5
1C
100
AcDbEntity
100
AcDbBlockBegin
2
*PAPER_SPACE
0
ENDBLK
5
1D
100
AcDbEntity
100
AcDbBlockEnd
0
ENDSEC
0
SECTION
2
ENTITIES
0
LINE
5
100
100
AcDbEntity
8
0
100
AcDbLine
10
-15.000000000000124
20
50.000000000000128
30
0
11
-9.3431457505077411
21
44.343145750507745
31
0
0
LINE
5
101
100
AcDbEntity
8
0
100
AcDbLine
10
-15.000000000000124
20
50.000000000000128
30
0
11
-18.535533905932866
21
46.464466094067383
31
0
0
LINE
5
102
100
AcDbEntity
8
0
100
AcDbLine
10
-12.878679656440482
20
40.807611844575007
30
0
11
-18.535533905932866
21
46.464466094067383
31
0
0
LINE
5
103
100
AcDbEntity
8
0
100
AcDbLine
10
-9.3431457505077411
20
44.343145750507745
30
0
11
-12.878679656440482
21
40.807611844575007
31
0
0
LINE
5
104
100
AcDbEntity
8
0
100
AcDbLine
10
14.999999999999876
20
50.000000000000199
30
0
11
9.3431457505075226
21
44.343145750507787
31
0
0
LINE
5
105
100
AcDbEntity
8
0
100
AcDbLine
10
18.535533905932631
20
46.464466094067475
30
0
11
14.999999999999876
21
50.000000000000199
31
0
0
LINE
5
106
100
AcDbEntity
8
0
100
AcDbLine
10
12.878679656440276
20
40.807611844575071
30
0
11
18.535533905932631
21
46.464466094067475
31
0
0
LINE
5
107
100
AcDbEntity
8
0
100
AcDbLine
10
9.3431457505075226
20
44.343145750507787
30
0
11
12.878679656440276
21
40.807611844575071
31
0
0
LINE
5
108
100
AcDbEntity
8
0
100
AcDbLine
10
29.999999999999872
20
50.00000000000032
30
0
11
29.999999999999908
21
42.00000000000032
31
0
0
LINE
5
109
100
AcDbEntity
8
0
100
AcDbLine
10
34.999999999999872
20
50.000000000000348
30
0
11
29.999999999999872
21
50.00000000000032
31
0
0
LINE
5
110
100
AcDbEntity
8
0
100
AcDbLine
10
34.999999999999915
20
42.000000000000348
30
0
11
34.999999999999872
21
50.000000000000348
31
0
0
LINE
5
111
100
AcDbEntity
8
0
100
AcDbLine
10
29.999999999999908
20
42.00000000000032
30
0
11
34.999999999999915
21
42.000000000000348
31
0
0
LINE
5
112
100
AcDbEntity
8
0
100
AcDbLine
10
-35.000000000000128
20
42.000000000000171
30
0
11
-35.000000000000128
21
50.000000000000171
31
0
0
LINE
5
113
100
AcDbEntity
8
0
100
AcDbLine
10
-30.000000000000121
20
50.000000000000171
30
0
11
-30.000000000000121
21
42.000000000000171
31
0
0
LINE
5
114
100
AcDbEntity
8
0
100
AcDbLine
10
-35.000000000000128
20
50.000000000000171
30
0
11
-30.000000000000121
21
50.000000000000171
31
0
0
LINE
5
115
100
AcDbEntity
8
0
100
AcDbLine
10
-30.000000000000121
20
42.000000000000171
30
0
11
-35.000000000000128
21
42.000000000000171
31
0
0
LINE
5
116
100
AcDbEntity
8
0
100
AcDbLine
10
5.499999999999905
20
-3.2718925562121921
30
0
11
5.499999999999905
21
-12.728107443787454
31
0
0
LINE
5
117
100
AcDbEntity
8
0
100
AcDbLine
10
5.4999999999999023
20
-0.57499999999982454
30
0
11
5.499999999999905
21
-3.2718925562121921
31
0
0
LINE
5
118
100
AcDbEntity
8
0
100
AcDbLine
10
7.8999999999999027
20
-0.57499999999982343
30
0
11
5.4999999999999023
21
-0.57499999999982454
31
0
0
LINE
5
119
100
AcDbEntity
8
0
100
AcDbLine
10
7.8999999999999027
20
1.7541523789077473e-13
30
0
11
7.8999999999999027
21
-0.57499999999982343
31
0
0
LINE
5
120
100
AcDbEntity
8
0
100
AcDbLine
10
9.8999999999999027
20
1.7541523789077473e-13
30
0
11
7.8999999999999027
21
1.7541523789077473e-13
31
0
0
LINE
5
121
100
AcDbEntity
8
0
100
AcDbLine
10
9.8999999999999027
20
1.7541523789077473e-13
30
0
11
10.899999999999903
21
0.50000000000017586
31
0
0
LINE
5
122
100
AcDbEntity
8
0
100
AcDbLine
10
24.899999999999906
20
0.50000000000017475
30
0
11
10.899999999999903
21
0.50000000000017586
31
0
0
LINE
5
123
100
AcDbEntity
8
0
100
AcDbLine
10
21.99999999999989
20
-36.999999999999808
30
0
11
21.99999999999989
21
5.000000000000191
31
0
0
LINE
5
124
100
AcDbEntity
8
0
100
AcDbLine
10
21.99999999999989
20
5.000000000000191
30
0
11
27.499999999999893
21
5.000000000000191
31
0
0
CIRCLE
5
125
100
AcDbEntity
8
0
100
AcDbCircle
10
24.74999999999989
20
2.2500000000001616
30
0
40
1.0499999999999998
210
-0
220
0
230
1
0
CIRCLE
5
126
100
AcDbEntity
8
0
100
AcDbCircle
10
24.749999999999886
20
-34.249999999999822
30
0
40
1.0499999999999998
210
-0
220
0
230
1
0
LINE
5
127
100
AcDbEntity
8
0
100
AcDbLine
10
21.99999999999989
20
-36.999999999999808
30
0
11
27.49999999999989
21
-36.999999999999808
31
0
0
LINE
5
128
100
AcDbEntity
8
0
100
AcDbLine
10
7.8999999999999027
20
-15.424999999999827
30
0
11
5.4999999999999023
21
-15.424999999999827
31
0
0
LINE
5
129
100
AcDbEntity
8
0
100
AcDbLine
10
5.499999999999905
20
-12.728107443787454
30
0
11
5.4999999999999023
21
-15.424999999999827
31
0
0
LINE
5
130
100
AcDbEntity
8
0
100
AcDbLine
10
9.8999999999999027
20
-15.999999999999826
30
0
11
7.8999999999999027
21
-15.999999999999826
31
0
0
LINE
5
131
100
AcDbEntity
8
0
100
AcDbLine
10
9.8999999999999027
20
-15.999999999999826
30
0
11
10.899999999999901
21
-16.499999999999826
31
0
0
LINE
5
132
100
AcDbEntity
8
0
100
AcDbLine
10
24.899999999999906
20
-16.499999999999826
30
0
11
10.899999999999901
21
-16.499999999999826
31
0
0
LINE
5
133
100
AcDbEntity
8
0
100
AcDbLine
10
-25.000000000000199
20
0.50000000000015865
30
0
11
-11.000000000000201
21
0.50000000000016143
31
0
0
LINE
5
134
100
AcDbEntity
8
0
100
AcDbLine
10
-25.000000000000199
20
-16.499999999999844
30
0
11
-11.000000000000194
21
-16.49999999999984
31
0
0
LINE
5
135
100
AcDbEntity
8
0
100
AcDbLine
10
-10.000000000000199
20
1.609823385706477e-13
30
0
11
-11.000000000000201
21
0.50000000000016143
31
0
0
LINE
5
136
100
AcDbEntity
8
0
100
AcDbLine
10
-10.000000000000199
20
1.609823385706477e-13
30
0
11
-8.000000000000199
21
1.609823385706477e-13
31
0
0
LINE
5
137
100
AcDbEntity
8
0
100
AcDbLine
10
-8.000000000000199
20
-0.57499999999983675
30
0
11
-8.000000000000199
21
1.609823385706477e-13
31
0
0
LINE
5
138
100
AcDbEntity
8
0
100
AcDbLine
10
-8.000000000000199
20
-0.57499999999983675
30
0
11
-5.6000000000001995
21
-0.57499999999983675
31
0
0
LINE
5
139
100
AcDbEntity
8
0
100
AcDbLine
10
-5.6000000000001968
20
-15.424999999999841
30
0
11
-5.6000000000001995
21
-0.57499999999983675
31
0
0
LINE
5
140
100
AcDbEntity
8
0
100
AcDbLine
10
-8.0000000000001972
20
-15.424999999999841
30
0
11
-5.6000000000001968
21
-15.424999999999841
31
0
0
LINE
5
141
100
AcDbEntity
8
0
100
AcDbLine
10
-10.000000000000195
20
-15.99999999999984
30
0
11
-8.0000000000001972
21
-15.99999999999984
31
0
0
LINE
5
142
100
AcDbEntity
8
0
100
AcDbLine
10
-10.000000000000195
20
-15.99999999999984
30
0
11
-11.000000000000194
21
-16.49999999999984
31
0
0
LINE
5
143
100
AcDbEntity
8
0
100
AcDbLine
10
-8.0000000000001972
20
-15.99999999999984
30
0
11
-8.0000000000001972
21
-15.424999999999841
31
0
0
LINE
5
144
100
AcDbEntity
8
0
100
AcDbLine
10
-22.000000000000131
20
-36.999999999999822
30
0
11
-22.000000000000139
21
5.0000000000001776
31
0
0
CIRCLE
5
145
100
AcDbEntity
8
0
100
AcDbCircle
10
-24.750000000000139
20
2.2500000000001572
30
0
40
1.0499999999999998
210
-0
220
0
230
1
0
LINE
5
146
100
AcDbEntity
8
0
100
AcDbLine
10
-27.500000000000139
20
5.0000000000001776
30
0
11
-22.000000000000139
21
5.0000000000001776
31
0
0
CIRCLE
5
147
100
AcDbEntity
8
0
100
AcDbCircle
10
-24.750000000000135
20
-34.249999999999822
30
0
40
1.0499999999999998
210
-0
220
0
230
1
0
LINE
5
148
100
AcDbEntity
8
0
100
AcDbLine
10
-27.500000000000128
20
-36.999999999999822
30
0
11
-22.000000000000131
21
-36.999999999999822
31
0
0
LINE
5
149
100
AcDbEntity
8
0
100
AcDbLine
10
7.8999999999999027
20
-15.424999999999827
30
0
11
7.8999999999999027
21
-15.999999999999826
31
0
0
ENDSEC
0
SECTION
2
OBJECTS
0
DICTIONARY
5
C
100
AcDbDictionary
3
ACAD_GROUP
350
D
3
ACAD_MLINESTYLE
350
17
0
DICTIONARY
5
D
100
AcDbDictionary
0
DICTIONARY
5
1A
330
C
100
AcDbDictionary
0
DICTIONARY
5
17
100
AcDbDictionary
0
ENDSEC
0
EOF
